<svg width="1998" height="644" viewBox="0 0 1998 644" preserveAspectRatio="none" fill="none" xmlns="http://www.w3.org/2000/svg">
<path fill-rule="evenodd" clip-rule="evenodd" d="M0.000732422 79.5185L13.5826 93.4309L14.1968 94.0568L79.3774 160.817L149.058 92.4555L149.08 90.458L149.138 81.9474L147.082 81.9401L91.516 81.4619L100.247 90.4229L137.236 91.1263L79.5368 147.469L27.2361 93.9003L20.3282 86.8286L13.4408 79.7744L80.9055 13.6711V13.6798L81.0503 0L0.000732422 79.5185Z" fill="url(#paint0_linear_2003_106)"/>
<path fill-rule="evenodd" clip-rule="evenodd" d="M42.4851 79.8125L56.067 93.7248L56.6826 94.3507L121.859 161.112L191.543 92.7509L191.565 90.752L191.624 82.2414L189.566 82.2341L134 81.7559L142.732 90.7169L179.722 91.4217L122.023 147.763L69.7205 94.1928L62.8126 87.1225L55.9266 80.0698L123.391 13.965V13.9738L123.535 0.293945L42.4851 79.8125Z" fill="url(#paint1_linear_2003_106)"/>
<path fill-rule="evenodd" clip-rule="evenodd" d="M0.000732422 240.335L13.5826 254.248L14.1968 254.873L79.3774 321.633L149.058 253.272L149.08 251.275L149.138 242.764L147.082 242.757L91.516 242.279L100.247 251.241L137.236 251.943L79.5368 308.285L27.2361 254.717L20.3282 247.645L13.4408 240.591L80.9055 174.489V174.496L81.0503 160.817L0.000732422 240.335Z" fill="url(#paint2_linear_2003_106)"/>
<path fill-rule="evenodd" clip-rule="evenodd" d="M42.4851 240.629L56.067 254.541L56.6826 255.167L121.859 321.929L191.543 253.568L191.565 251.569L191.624 243.058L189.566 243.051L134 242.573L142.732 251.534L179.722 252.238L122.023 308.579L69.7205 255.009L62.8126 247.939L55.9266 240.887L123.391 174.782V174.79L123.535 161.111L42.4851 240.629Z" fill="url(#paint3_linear_2003_106)"/>
<path fill-rule="evenodd" clip-rule="evenodd" d="M0.000732422 401.152L13.5826 415.064L14.1968 415.692L79.3774 482.45L149.058 414.089L149.08 412.091L149.138 403.581L147.082 403.573L91.516 403.095L100.247 412.058L137.236 412.76L79.5368 469.102L27.2361 415.534L20.3282 408.462L13.4408 401.408L80.9055 335.306V335.313L81.0503 321.633L0.000732422 401.152Z" fill="url(#paint4_linear_2003_106)"/>
<path fill-rule="evenodd" clip-rule="evenodd" d="M0.000732422 561.969L13.5826 575.881L14.1968 576.508L79.3774 643.267L149.058 574.907L149.08 572.91L149.138 564.398L147.082 564.39L91.516 563.912L100.247 572.875L137.236 573.576L79.5368 629.92L27.2361 576.35L20.3282 569.28L13.4408 562.225L80.9055 496.123V496.13L81.0503 482.45L0.000732422 561.969Z" fill="url(#paint5_linear_2003_106)"/>
<path fill-rule="evenodd" clip-rule="evenodd" d="M42.4851 401.447L56.067 415.358L56.6826 415.984L121.859 482.745L191.543 414.384L191.565 412.385L191.624 403.875L189.566 403.869L134 403.389L142.732 412.35L179.722 413.055L122.023 469.396L69.7205 415.826L62.8126 408.756L55.9266 401.703L123.391 335.598V335.607L123.535 321.927L42.4851 401.447Z" fill="url(#paint6_linear_2003_106)"/>
<path fill-rule="evenodd" clip-rule="evenodd" d="M42.4851 562.264L56.067 576.175L56.6826 576.801L121.859 643.562L191.543 575.201L191.565 573.202L191.624 564.692L189.566 564.686L134 564.206L142.732 573.167L179.722 573.872L122.023 630.213L69.7205 576.643L62.8126 569.573L55.9266 562.52L123.391 496.415V496.424L123.535 482.744L42.4851 562.264Z" fill="url(#paint7_linear_2003_106)"/>
<path fill-rule="evenodd" clip-rule="evenodd" d="M150.53 161.111L164.111 175.021L164.726 175.649L229.905 242.409L299.587 174.048L299.608 172.05L299.668 163.539L297.612 163.531L242.044 163.053L250.777 172.015L287.766 172.718L230.066 229.061L177.766 175.491L170.858 168.421L163.97 161.366L231.435 95.2631V95.2719L231.578 81.592L150.53 161.111Z" fill="url(#paint8_linear_2003_106)"/>
<path fill-rule="evenodd" clip-rule="evenodd" d="M301.058 79.5185L314.64 93.4309L315.254 94.0568L380.435 160.817L450.116 92.4555L450.137 90.458L450.195 81.9474L448.139 81.9401L392.573 81.4619L401.305 90.4229L438.295 91.1263L380.594 147.469L328.295 93.9003L321.387 86.8286L314.498 79.7744L381.964 13.6711V13.6798L382.108 0L301.058 79.5185Z" fill="url(#paint9_linear_2003_106)"/>
<path fill-rule="evenodd" clip-rule="evenodd" d="M193.014 161.405L206.595 175.317L207.212 175.943L272.388 242.703L342.073 174.342L342.093 172.343L342.152 163.832L340.094 163.826L284.53 163.348L293.261 172.309L330.251 173.012L272.55 229.353L220.25 175.785L213.342 168.715L206.454 161.66L273.921 95.557V95.5644L274.064 81.8845L193.014 161.405Z" fill="url(#paint10_linear_2003_106)"/>
<path fill-rule="evenodd" clip-rule="evenodd" d="M343.542 79.8125L357.124 93.7248L357.74 94.3507L422.918 161.112L492.601 92.7509L492.623 90.752L492.681 82.2414L490.624 82.2341L435.059 81.7559L443.789 90.7169L480.78 91.4217L423.08 147.763L370.779 94.1928L363.871 87.1225L356.984 80.0698L424.449 13.965V13.9738L424.594 0.293945L343.542 79.8125Z" fill="url(#paint11_linear_2003_106)"/>
<path fill-rule="evenodd" clip-rule="evenodd" d="M150.53 321.927L164.111 335.838L164.726 336.465L229.905 403.225L299.587 334.864L299.608 332.867L299.668 324.356L297.612 324.347L242.044 323.869L250.777 332.832L287.766 333.535L230.066 389.877L177.766 336.308L170.858 329.237L163.97 322.183L231.435 256.08V256.089L231.578 242.409L150.53 321.927Z" fill="url(#paint12_linear_2003_106)"/>
<path fill-rule="evenodd" clip-rule="evenodd" d="M301.058 240.335L314.64 254.248L315.254 254.873L380.435 321.633L450.116 253.272L450.137 251.275L450.195 242.764L448.139 242.757L392.573 242.279L401.305 251.241L438.295 251.943L380.594 308.285L328.295 254.717L321.387 247.645L314.498 240.591L381.964 174.489V174.496L382.108 160.817L301.058 240.335Z" fill="url(#paint13_linear_2003_106)"/>
<path fill-rule="evenodd" clip-rule="evenodd" d="M193.014 322.221L206.595 336.134L207.212 336.759L272.388 403.519L342.073 335.158L342.093 333.161L342.152 324.649L340.094 324.643L284.53 324.165L293.261 333.126L330.251 333.829L272.55 390.171L220.25 336.601L213.342 329.531L206.454 322.477L273.921 256.374V256.381L274.064 242.701L193.014 322.221Z" fill="url(#paint14_linear_2003_106)"/>
<path fill-rule="evenodd" clip-rule="evenodd" d="M343.542 240.629L357.124 254.541L357.74 255.167L422.918 321.929L492.601 253.568L492.623 251.569L492.681 243.058L490.624 243.051L435.059 242.573L443.789 251.534L480.78 252.238L423.08 308.579L370.779 255.009L363.871 247.939L356.984 240.887L424.449 174.782V174.79L424.594 161.111L343.542 240.629Z" fill="url(#paint15_linear_2003_106)"/>
<path fill-rule="evenodd" clip-rule="evenodd" d="M150.53 482.744L164.111 496.655L164.726 497.282L229.905 564.042L299.587 495.681L299.608 493.684L299.668 485.173L297.612 485.166L242.044 484.686L250.777 493.649L287.766 494.352L230.066 550.694L177.766 497.124L170.858 490.054L163.97 483L231.435 416.897V416.905L231.578 403.226L150.53 482.744Z" fill="url(#paint16_linear_2003_106)"/>
<path fill-rule="evenodd" clip-rule="evenodd" d="M301.058 401.152L314.64 415.064L315.254 415.692L380.435 482.45L450.116 414.089L450.137 412.091L450.195 403.581L448.139 403.573L392.573 403.095L401.305 412.058L438.295 412.76L380.594 469.102L328.295 415.534L321.387 408.462L314.498 401.408L381.964 335.306V335.313L382.108 321.633L301.058 401.152Z" fill="url(#paint17_linear_2003_106)"/>
<path fill-rule="evenodd" clip-rule="evenodd" d="M193.014 483.038L206.595 496.95L207.212 497.576L272.388 564.338L342.073 495.975L342.093 493.978L342.152 485.467L340.094 485.46L284.53 484.981L293.261 493.942L330.251 494.646L272.55 550.988L220.25 497.418L213.342 490.348L206.454 483.294L273.921 417.191V417.199L274.064 403.518L193.014 483.038Z" fill="url(#paint18_linear_2003_106)"/>
<path fill-rule="evenodd" clip-rule="evenodd" d="M343.542 401.447L357.124 415.358L357.74 415.984L422.918 482.745L492.601 414.384L492.623 412.385L492.681 403.875L490.624 403.869L435.059 403.389L443.789 412.35L480.78 413.055L423.08 469.396L370.779 415.826L363.871 408.756L356.984 401.703L424.449 335.598V335.607L424.594 321.927L343.542 401.447Z" fill="url(#paint19_linear_2003_106)"/>
<path fill-rule="evenodd" clip-rule="evenodd" d="M451.588 161.111L465.17 175.021L465.784 175.649L530.964 242.409L600.645 174.048L600.666 172.05L600.725 163.539L598.669 163.531L543.103 163.053L551.834 172.015L588.823 172.718L531.124 229.061L478.824 175.491L471.917 168.421L465.028 161.366L532.492 95.2631V95.2719L532.637 81.592L451.588 161.111Z" fill="url(#paint20_linear_2003_106)"/>
<path fill-rule="evenodd" clip-rule="evenodd" d="M752.646 161.111L766.227 175.021L766.841 175.649L832.022 242.409L901.703 174.048L901.724 172.05L901.784 163.539L899.728 163.531L844.16 163.053L852.893 172.015L889.882 172.718L832.181 229.061L779.882 175.491L772.974 168.421L766.086 161.366L833.551 95.2631V95.2719L833.695 81.592L752.646 161.111Z" fill="url(#paint21_linear_2003_106)"/>
<path fill-rule="evenodd" clip-rule="evenodd" d="M602.117 79.5185L615.699 93.4309L616.313 94.0568L681.492 160.817L751.174 92.4555L751.196 90.458L751.254 81.9474L749.198 81.9401L693.632 81.4619L702.364 90.4229L739.353 91.1263L681.653 147.469L629.352 93.9003L622.444 86.8286L615.557 79.7744L683.022 13.6711V13.6798L683.167 0L602.117 79.5185Z" fill="url(#paint22_linear_2003_106)"/>
<path fill-rule="evenodd" clip-rule="evenodd" d="M494.072 161.405L507.654 175.317L508.269 175.943L573.447 242.703L643.13 174.342L643.152 172.343L643.211 163.832L641.153 163.826L585.587 163.348L594.318 172.309L631.309 173.012L573.609 229.353L521.307 175.785L514.399 168.715L507.513 161.66L574.978 95.557V95.5644L575.123 81.8845L494.072 161.405Z" fill="url(#paint23_linear_2003_106)"/>
<path fill-rule="evenodd" clip-rule="evenodd" d="M795.129 161.405L808.711 175.317L809.326 175.943L874.504 242.703L944.189 174.342L944.209 172.343L944.268 163.832L942.21 163.826L886.646 163.348L895.376 172.309L932.367 173.012L874.667 229.353L822.366 175.785L815.458 168.715L808.57 161.66L876.037 95.557V95.5644L876.18 81.8845L795.129 161.405Z" fill="url(#paint24_linear_2003_106)"/>
<path fill-rule="evenodd" clip-rule="evenodd" d="M644.601 79.8125L658.182 93.7248L658.799 94.3507L723.975 161.112L793.66 92.7509L793.682 90.752L793.74 82.2414L791.683 82.2341L736.117 81.7559L744.848 90.7169L781.838 91.4217L724.137 147.763L671.837 94.1928L664.929 87.1225L658.043 80.0698L725.508 13.965V13.9738L725.651 0.293945L644.601 79.8125Z" fill="url(#paint25_linear_2003_106)"/>
<path fill-rule="evenodd" clip-rule="evenodd" d="M451.588 321.927L465.17 335.838L465.784 336.465L530.964 403.225L600.645 334.864L600.666 332.867L600.725 324.356L598.669 324.347L543.103 323.869L551.834 332.832L588.823 333.535L531.124 389.877L478.824 336.308L471.917 329.237L465.028 322.183L532.492 256.08V256.089L532.637 242.409L451.588 321.927Z" fill="url(#paint26_linear_2003_106)"/>
<path fill-rule="evenodd" clip-rule="evenodd" d="M602.117 240.335L615.699 254.248L616.313 254.873L681.492 321.633L751.174 253.272L751.196 251.275L751.254 242.764L749.198 242.757L693.632 242.279L702.364 251.241L739.353 251.943L681.653 308.285L629.352 254.717L622.444 247.645L615.557 240.591L683.022 174.489V174.496L683.167 160.817L602.117 240.335Z" fill="url(#paint27_linear_2003_106)"/>
<path fill-rule="evenodd" clip-rule="evenodd" d="M494.072 322.221L507.654 336.134L508.269 336.759L573.447 403.519L643.13 335.158L643.152 333.161L643.211 324.649L641.153 324.643L585.587 324.165L594.318 333.126L631.309 333.829L573.609 390.171L521.307 336.601L514.399 329.531L507.513 322.477L574.978 256.374V256.381L575.123 242.701L494.072 322.221Z" fill="url(#paint28_linear_2003_106)"/>
<path fill-rule="evenodd" clip-rule="evenodd" d="M644.601 240.629L658.182 254.541L658.799 255.167L723.975 321.929L793.66 253.568L793.682 251.569L793.74 243.058L791.683 243.051L736.117 242.573L744.848 251.534L781.838 252.238L724.137 308.579L671.837 255.009L664.929 247.939L658.043 240.887L725.508 174.782V174.79L725.651 161.111L644.601 240.629Z" fill="url(#paint29_linear_2003_106)"/>
<defs>
<linearGradient id="paint0_linear_2003_106" x1="0.000732422" y1="80.4088" x2="149.138" y2="80.4088" gradientUnits="userSpaceOnUse">
<stop stop-color="#424242"/>
<stop offset="0.0313725" stop-color="#424242"/>
<stop offset="0.231373" stop-color="#424242"/>
<stop offset="0.380392" stop-color="#424242"/>
<stop offset="0.572549" stop-color="#424242"/>
<stop offset="0.721569" stop-color="#424242"/>
<stop offset="1" stop-color="#424242"/>
</linearGradient>
<linearGradient id="paint1_linear_2003_106" x1="42.4851" y1="80.7035" x2="191.624" y2="80.7035" gradientUnits="userSpaceOnUse">
<stop stop-color="#424242"/>
<stop offset="0.0313725" stop-color="#424242"/>
<stop offset="0.231373" stop-color="#424242"/>
<stop offset="0.380392" stop-color="#424242"/>
<stop offset="0.572549" stop-color="#424242"/>
<stop offset="0.721569" stop-color="#424242"/>
<stop offset="1" stop-color="#424242"/>
</linearGradient>
<linearGradient id="paint2_linear_2003_106" x1="0.000732422" y1="241.225" x2="149.138" y2="241.225" gradientUnits="userSpaceOnUse">
<stop stop-color="#424242"/>
<stop offset="0.0313725" stop-color="#424242"/>
<stop offset="0.231373" stop-color="#424242"/>
<stop offset="0.380392" stop-color="#424242"/>
<stop offset="0.572549" stop-color="#424242"/>
<stop offset="0.721569" stop-color="#424242"/>
<stop offset="1" stop-color="#424242"/>
</linearGradient>
<linearGradient id="paint3_linear_2003_106" x1="42.4851" y1="241.52" x2="191.624" y2="241.52" gradientUnits="userSpaceOnUse">
<stop stop-color="#424242"/>
<stop offset="0.0313725" stop-color="#424242"/>
<stop offset="0.231373" stop-color="#424242"/>
<stop offset="0.380392" stop-color="#424242"/>
<stop offset="0.572549" stop-color="#424242"/>
<stop offset="0.721569" stop-color="#424242"/>
<stop offset="1" stop-color="#424242"/>
</linearGradient>
<linearGradient id="paint4_linear_2003_106" x1="0.000732422" y1="402.042" x2="149.138" y2="402.042" gradientUnits="userSpaceOnUse">
<stop stop-color="#424242"/>
<stop offset="0.0313725" stop-color="#424242"/>
<stop offset="0.231373" stop-color="#424242"/>
<stop offset="0.380392" stop-color="#424242"/>
<stop offset="0.572549" stop-color="#424242"/>
<stop offset="0.721569" stop-color="#424242"/>
<stop offset="1" stop-color="#424242"/>
</linearGradient>
<linearGradient id="paint5_linear_2003_106" x1="0.000732422" y1="562.859" x2="149.138" y2="562.859" gradientUnits="userSpaceOnUse">
<stop stop-color="#424242"/>
<stop offset="0.0313725" stop-color="#424242"/>
<stop offset="0.231373" stop-color="#424242"/>
<stop offset="0.380392" stop-color="#424242"/>
<stop offset="0.572549" stop-color="#424242"/>
<stop offset="0.721569" stop-color="#424242"/>
<stop offset="1" stop-color="#424242"/>
</linearGradient>
<linearGradient id="paint6_linear_2003_106" x1="42.4851" y1="402.337" x2="191.624" y2="402.337" gradientUnits="userSpaceOnUse">
<stop stop-color="#424242"/>
<stop offset="0.0313725" stop-color="#424242"/>
<stop offset="0.231373" stop-color="#424242"/>
<stop offset="0.380392" stop-color="#424242"/>
<stop offset="0.572549" stop-color="#424242"/>
<stop offset="0.721569" stop-color="#424242"/>
<stop offset="1" stop-color="#424242"/>
</linearGradient>
<linearGradient id="paint7_linear_2003_106" x1="42.4851" y1="563.154" x2="191.624" y2="563.154" gradientUnits="userSpaceOnUse">
<stop stop-color="#424242"/>
<stop offset="0.0313725" stop-color="#424242"/>
<stop offset="0.231373" stop-color="#424242"/>
<stop offset="0.380392" stop-color="#424242"/>
<stop offset="0.572549" stop-color="#424242"/>
<stop offset="0.721569" stop-color="#424242"/>
<stop offset="1" stop-color="#424242"/>
</linearGradient>
<linearGradient id="paint8_linear_2003_106" x1="150.53" y1="162.001" x2="299.668" y2="162.001" gradientUnits="userSpaceOnUse">
<stop stop-color="#424242"/>
<stop offset="0.0313725" stop-color="#424242"/>
<stop offset="0.231373" stop-color="#424242"/>
<stop offset="0.380392" stop-color="#424242"/>
<stop offset="0.572549" stop-color="#424242"/>
<stop offset="0.721569" stop-color="#424242"/>
<stop offset="1" stop-color="#424242"/>
</linearGradient>
<linearGradient id="paint9_linear_2003_106" x1="301.058" y1="80.4088" x2="450.195" y2="80.4088" gradientUnits="userSpaceOnUse">
<stop stop-color="#424242"/>
<stop offset="0.0313725" stop-color="#424242"/>
<stop offset="0.231373" stop-color="#424242"/>
<stop offset="0.380392" stop-color="#424242"/>
<stop offset="0.572549" stop-color="#424242"/>
<stop offset="0.721569" stop-color="#424242"/>
<stop offset="1" stop-color="#424242"/>
</linearGradient>
<linearGradient id="paint10_linear_2003_106" x1="193.014" y1="162.294" x2="342.152" y2="162.294" gradientUnits="userSpaceOnUse">
<stop stop-color="#424242"/>
<stop offset="0.0313725" stop-color="#424242"/>
<stop offset="0.231373" stop-color="#424242"/>
<stop offset="0.380392" stop-color="#424242"/>
<stop offset="0.572549" stop-color="#424242"/>
<stop offset="0.721569" stop-color="#424242"/>
<stop offset="1" stop-color="#424242"/>
</linearGradient>
<linearGradient id="paint11_linear_2003_106" x1="343.542" y1="80.7035" x2="492.681" y2="80.7035" gradientUnits="userSpaceOnUse">
<stop stop-color="#424242"/>
<stop offset="0.0313725" stop-color="#424242"/>
<stop offset="0.231373" stop-color="#424242"/>
<stop offset="0.380392" stop-color="#424242"/>
<stop offset="0.572549" stop-color="#424242"/>
<stop offset="0.721569" stop-color="#424242"/>
<stop offset="1" stop-color="#424242"/>
</linearGradient>
<linearGradient id="paint12_linear_2003_106" x1="150.53" y1="322.818" x2="299.668" y2="322.818" gradientUnits="userSpaceOnUse">
<stop stop-color="#424242"/>
<stop offset="0.0313725" stop-color="#424242"/>
<stop offset="0.231373" stop-color="#424242"/>
<stop offset="0.380392" stop-color="#424242"/>
<stop offset="0.572549" stop-color="#424242"/>
<stop offset="0.721569" stop-color="#424242"/>
<stop offset="1" stop-color="#424242"/>
</linearGradient>
<linearGradient id="paint13_linear_2003_106" x1="301.058" y1="241.225" x2="450.195" y2="241.225" gradientUnits="userSpaceOnUse">
<stop stop-color="#424242"/>
<stop offset="0.0313725" stop-color="#424242"/>
<stop offset="0.231373" stop-color="#424242"/>
<stop offset="0.380392" stop-color="#424242"/>
<stop offset="0.572549" stop-color="#424242"/>
<stop offset="0.721569" stop-color="#424242"/>
<stop offset="1" stop-color="#424242"/>
</linearGradient>
<linearGradient id="paint14_linear_2003_106" x1="193.014" y1="323.111" x2="342.152" y2="323.111" gradientUnits="userSpaceOnUse">
<stop stop-color="#424242"/>
<stop offset="0.0313725" stop-color="#424242"/>
<stop offset="0.231373" stop-color="#424242"/>
<stop offset="0.380392" stop-color="#424242"/>
<stop offset="0.572549" stop-color="#424242"/>
<stop offset="0.721569" stop-color="#424242"/>
<stop offset="1" stop-color="#424242"/>
</linearGradient>
<linearGradient id="paint15_linear_2003_106" x1="343.542" y1="241.52" x2="492.681" y2="241.52" gradientUnits="userSpaceOnUse">
<stop stop-color="#424242"/>
<stop offset="0.0313725" stop-color="#424242"/>
<stop offset="0.231373" stop-color="#424242"/>
<stop offset="0.380392" stop-color="#424242"/>
<stop offset="0.572549" stop-color="#424242"/>
<stop offset="0.721569" stop-color="#424242"/>
<stop offset="1" stop-color="#424242"/>
</linearGradient>
<linearGradient id="paint16_linear_2003_106" x1="150.53" y1="483.634" x2="299.668" y2="483.634" gradientUnits="userSpaceOnUse">
<stop stop-color="#424242"/>
<stop offset="0.0313725" stop-color="#424242"/>
<stop offset="0.231373" stop-color="#424242"/>
<stop offset="0.380392" stop-color="#424242"/>
<stop offset="0.572549" stop-color="#424242"/>
<stop offset="0.721569" stop-color="#424242"/>
<stop offset="1" stop-color="#424242"/>
</linearGradient>
<linearGradient id="paint17_linear_2003_106" x1="301.058" y1="402.042" x2="450.195" y2="402.042" gradientUnits="userSpaceOnUse">
<stop stop-color="#424242"/>
<stop offset="0.0313725" stop-color="#424242"/>
<stop offset="0.231373" stop-color="#424242"/>
<stop offset="0.380392" stop-color="#424242"/>
<stop offset="0.572549" stop-color="#424242"/>
<stop offset="0.721569" stop-color="#424242"/>
<stop offset="1" stop-color="#424242"/>
</linearGradient>
<linearGradient id="paint18_linear_2003_106" x1="193.014" y1="483.928" x2="342.152" y2="483.928" gradientUnits="userSpaceOnUse">
<stop stop-color="#424242"/>
<stop offset="0.0313725" stop-color="#424242"/>
<stop offset="0.231373" stop-color="#424242"/>
<stop offset="0.380392" stop-color="#424242"/>
<stop offset="0.572549" stop-color="#424242"/>
<stop offset="0.721569" stop-color="#424242"/>
<stop offset="1" stop-color="#424242"/>
</linearGradient>
<linearGradient id="paint19_linear_2003_106" x1="343.542" y1="402.337" x2="492.681" y2="402.337" gradientUnits="userSpaceOnUse">
<stop stop-color="#424242"/>
<stop offset="0.0313725" stop-color="#424242"/>
<stop offset="0.231373" stop-color="#424242"/>
<stop offset="0.380392" stop-color="#424242"/>
<stop offset="0.572549" stop-color="#424242"/>
<stop offset="0.721569" stop-color="#424242"/>
<stop offset="1" stop-color="#424242"/>
</linearGradient>
<linearGradient id="paint20_linear_2003_106" x1="451.588" y1="162.001" x2="600.725" y2="162.001" gradientUnits="userSpaceOnUse">
<stop stop-color="#424242"/>
<stop offset="0.0313725" stop-color="#424242"/>
<stop offset="0.231373" stop-color="#424242"/>
<stop offset="0.380392" stop-color="#424242"/>
<stop offset="0.572549" stop-color="#424242"/>
<stop offset="0.721569" stop-color="#424242"/>
<stop offset="1" stop-color="#424242"/>
</linearGradient>
<linearGradient id="paint21_linear_2003_106" x1="752.646" y1="162.001" x2="901.784" y2="162.001" gradientUnits="userSpaceOnUse">
<stop stop-color="#424242"/>
<stop offset="0.0313725" stop-color="#424242"/>
<stop offset="0.231373" stop-color="#424242"/>
<stop offset="0.380392" stop-color="#424242"/>
<stop offset="0.572549" stop-color="#424242"/>
<stop offset="0.721569" stop-color="#424242"/>
<stop offset="1" stop-color="#424242"/>
</linearGradient>
<linearGradient id="paint22_linear_2003_106" x1="602.117" y1="80.4088" x2="751.254" y2="80.4088" gradientUnits="userSpaceOnUse">
<stop stop-color="#424242"/>
<stop offset="0.0313725" stop-color="#424242"/>
<stop offset="0.231373" stop-color="#424242"/>
<stop offset="0.380392" stop-color="#424242"/>
<stop offset="0.572549" stop-color="#424242"/>
<stop offset="0.721569" stop-color="#424242"/>
<stop offset="1" stop-color="#424242"/>
</linearGradient>
<linearGradient id="paint23_linear_2003_106" x1="494.072" y1="162.294" x2="643.211" y2="162.294" gradientUnits="userSpaceOnUse">
<stop stop-color="#424242"/>
<stop offset="0.0313725" stop-color="#424242"/>
<stop offset="0.231373" stop-color="#424242"/>
<stop offset="0.380392" stop-color="#424242"/>
<stop offset="0.572549" stop-color="#424242"/>
<stop offset="0.721569" stop-color="#424242"/>
<stop offset="1" stop-color="#424242"/>
</linearGradient>
<linearGradient id="paint24_linear_2003_106" x1="795.129" y1="162.294" x2="944.268" y2="162.294" gradientUnits="userSpaceOnUse">
<stop stop-color="#424242"/>
<stop offset="0.0313725" stop-color="#424242"/>
<stop offset="0.231373" stop-color="#424242"/>
<stop offset="0.380392" stop-color="#424242"/>
<stop offset="0.572549" stop-color="#424242"/>
<stop offset="0.721569" stop-color="#424242"/>
<stop offset="1" stop-color="#424242"/>
</linearGradient>
<linearGradient id="paint25_linear_2003_106" x1="644.601" y1="80.7035" x2="793.74" y2="80.7035" gradientUnits="userSpaceOnUse">
<stop stop-color="#424242"/>
<stop offset="0.0313725" stop-color="#424242"/>
<stop offset="0.231373" stop-color="#424242"/>
<stop offset="0.380392" stop-color="#424242"/>
<stop offset="0.572549" stop-color="#424242"/>
<stop offset="0.721569" stop-color="#424242"/>
<stop offset="1" stop-color="#424242"/>
</linearGradient>
<linearGradient id="paint26_linear_2003_106" x1="451.588" y1="322.818" x2="600.725" y2="322.818" gradientUnits="userSpaceOnUse">
<stop stop-color="#424242"/>
<stop offset="0.0313725" stop-color="#424242"/>
<stop offset="0.231373" stop-color="#424242"/>
<stop offset="0.380392" stop-color="#424242"/>
<stop offset="0.572549" stop-color="#424242"/>
<stop offset="0.721569" stop-color="#424242"/>
<stop offset="1" stop-color="#424242"/>
</linearGradient>
<linearGradient id="paint27_linear_2003_106" x1="602.117" y1="241.225" x2="751.254" y2="241.225" gradientUnits="userSpaceOnUse">
<stop stop-color="#424242"/>
<stop offset="0.0313725" stop-color="#424242"/>
<stop offset="0.231373" stop-color="#424242"/>
<stop offset="0.380392" stop-color="#424242"/>
<stop offset="0.572549" stop-color="#424242"/>
<stop offset="0.721569" stop-color="#424242"/>
<stop offset="1" stop-color="#424242"/>
</linearGradient>
<linearGradient id="paint28_linear_2003_106" x1="494.072" y1="323.111" x2="643.211" y2="323.111" gradientUnits="userSpaceOnUse">
<stop stop-color="#424242"/>
<stop offset="0.0313725" stop-color="#424242"/>
<stop offset="0.231373" stop-color="#424242"/>
<stop offset="0.380392" stop-color="#424242"/>
<stop offset="0.572549" stop-color="#424242"/>
<stop offset="0.721569" stop-color="#424242"/>
<stop offset="1" stop-color="#424242"/>
</linearGradient>
<linearGradient id="paint29_linear_2003_106" x1="644.601" y1="241.52" x2="793.74" y2="241.52" gradientUnits="userSpaceOnUse">
<stop stop-color="#424242"/>
<stop offset="0.0313725" stop-color="#424242"/>
<stop offset="0.231373" stop-color="#424242"/>
<stop offset="0.380392" stop-color="#424242"/>
<stop offset="0.572549" stop-color="#424242"/>
<stop offset="0.721569" stop-color="#424242"/>
<stop offset="1" stop-color="#424242"/>
</linearGradient>
</defs>
</svg>
